HIERARCHY
ROOT joint_Root
{
	OFFSET 0.0 0.0 0.0
	CHANNELS 6 Xposition Yposition Zposition Zrotation Xrotation Yrotation 
	JOINT Hips
	{
		OFFSET -17.1583 93.1646 452.98
		CHANNELS 6 Xposition Yposition Zposition Zrotation Xrotation Yrotation 
		JOINT Spine
		{
			OFFSET 15.7357 0.0 0.0
			CHANNELS 6 Xposition Yposition Zposition Zrotation Xrotation Yrotation 
			JOINT Chest
			{
				OFFSET 8.98455 -0.406207 0.0
				CHANNELS 6 Xposition Yposition Zposition Zrotation Xrotation Yrotation 
				JOINT Neck
				{
					OFFSET 16.3773 0.0 0.0
					CHANNELS 6 Xposition Yposition Zposition Zrotation Xrotation Yrotation 
					JOINT Head
					{
						OFFSET 6.45672 0.0 0.0
						CHANNELS 6 Xposition Yposition Zposition Zrotation Xrotation Yrotation 
						End Site
						{
							OFFSET 0.0 0.0 0.0
						}
					}
				}
				JOINT Shoulder_L
				{
					OFFSET 12.9942 -0.242716 4.98039
					CHANNELS 6 Xposition Yposition Zposition Zrotation Xrotation Yrotation 
					JOINT UpperArm_L
					{
						OFFSET 5.34809 0.0 0.0
						CHANNELS 6 Xposition Yposition Zposition Zrotation Xrotation Yrotation 
						JOINT LowerArm_L
						{
							OFFSET 24.3286 1.87007e-05 0.0
							CHANNELS 6 Xposition Yposition Zposition Zrotation Xrotation Yrotation 
							JOINT Hand_L
							{
								OFFSET 22.2916 0.0 0.0
								CHANNELS 6 Xposition Yposition Zposition Zrotation Xrotation Yrotation 
								End Site
								{
									OFFSET 0.0 0.0 0.0
								}
							}
						}
					}
				}
				JOINT Shoulder_R
				{
					OFFSET 12.9945 -0.242716 -4.98039
					CHANNELS 6 Xposition Yposition Zposition Zrotation Xrotation Yrotation 
					JOINT UpperArm_R
					{
						OFFSET -5.34813 0.0 0.0
						CHANNELS 6 Xposition Yposition Zposition Zrotation Xrotation Yrotation 
						JOINT LowerArm_R
						{
							OFFSET -24.3289 0.000322201 0.0
							CHANNELS 6 Xposition Yposition Zposition Zrotation Xrotation Yrotation 
							JOINT Hand_R
							{
								OFFSET -22.2915 -0.000108084 0.0
								CHANNELS 6 Xposition Yposition Zposition Zrotation Xrotation Yrotation 
								End Site
								{
									OFFSET 0.0 0.0 0.0
								}
							}
						}
					}
				}
			}
		}
		JOINT UpperLeg_L
		{
			OFFSET -2.19248 -6.46944 0.0
			CHANNELS 6 Xposition Yposition Zposition Zrotation Xrotation Yrotation 
			JOINT LowerLeg_L
			{
				OFFSET 39.0811 0.0 -1.23785e-05
				CHANNELS 6 Xposition Yposition Zposition Zrotation Xrotation Yrotation 
				JOINT Foot_L
				{
					OFFSET 40.9854 0.0 -1.26872e-05
					CHANNELS 6 Xposition Yposition Zposition Zrotation Xrotation Yrotation 
					JOINT Toes_L
					{
						OFFSET 11.7543 0.0 0.0
						CHANNELS 6 Xposition Yposition Zposition Zrotation Xrotation Yrotation 
						End Site
						{
							OFFSET 0.0 0.0 0.0
						}
					}
				}
			}
		}
		JOINT UpperLeg_R
		{
			OFFSET -2.19251 6.46944 0.0
			CHANNELS 6 Xposition Yposition Zposition Zrotation Xrotation Yrotation 
			JOINT LowerLeg_R
			{
				OFFSET -39.0811 -0.00228153 -0.0401928
				CHANNELS 6 Xposition Yposition Zposition Zrotation Xrotation Yrotation 
				JOINT Foot_R
				{
					OFFSET -40.9854 0.0 0.0
					CHANNELS 6 Xposition Yposition Zposition Zrotation Xrotation Yrotation 
					JOINT Toes_R
					{
						OFFSET -11.7543 0.0 0.0
						CHANNELS 6 Xposition Yposition Zposition Zrotation Xrotation Yrotation 
						End Site
						{
							OFFSET 0.0 0.0 0.0
						}
					}
				}
			}
		}
	}
}
MOTION
Frames:	9
Frame Time:	0.0333333
0.000000 0.000000 0.000000 0.000000 0.000000 -0.000000 0.936636 93.281200 63.523500 -84.164800 -1.419200 162.256000 15.735700 0.000005 -0.000001 37.057300 83.925200 -33.104100 8.984550 -0.406207 -0.000000 -0.078465 -9.963990 7.910750 16.377300 -0.000001 -0.000001 -4.056320 5.807290 -3.512410 6.456720 -0.000001 -0.000000 -13.016200 11.143300 -0.549661 12.994200 -0.242716 4.980390 -91.804300 6.456900 -74.351200 5.348090 -0.000007 -0.000001 -58.939900 -4.493360 -4.620260 24.328600 0.000019 0.000005 28.947300 8.445920 -75.127200 22.291600 -0.000001 0.000005 22.080500 5.100690 5.089470 12.994500 -0.242716 -4.980390 89.640700 1.043810 -71.007400 -5.348130 -0.000001 -0.000004 -46.405200 -16.339100 25.713700 -24.328900 0.000322 -0.000009 -0.001048 21.674300 0.000100 -22.291500 -0.000108 -0.000004 15.972100 4.700460 13.149100 -2.192480 -6.469440 -0.000000 -171.898000 -12.352000 7.392850 39.081100 -0.000007 -0.000012 0.022447 -0.102277 12.378900 40.985400 -0.000006 -0.000013 -5.481710 16.001400 -29.755100 11.754300 -0.000000 0.000003 0.002483 0.087315 -13.035800 -2.192510 6.469440 -0.000001 -172.780000 -2.243770 129.777000 -39.081100 -0.002282 -0.040193 -0.021759 0.024718 45.349900 -40.985400 0.000008 0.000006 -6.776900 -10.713200 -69.742500 -11.754300 -0.000006 -0.000006 -0.000242 0.171652 -9.610990
0.000000 0.000000 0.000000 0.000000 0.000000 -0.000000 0.968291 92.779200 52.718600 -85.902200 -0.539395 163.904000 15.735700 0.000005 -0.000001 35.150900 83.241100 -32.118000 8.984550 -0.406207 -0.000000 0.339481 -11.246300 6.110370 16.377300 -0.000001 -0.000001 -4.268390 6.410080 -3.418100 6.456720 -0.000001 -0.000000 -12.559200 12.059900 0.794785 12.994200 -0.242716 4.980390 -91.595500 5.979670 -75.030500 5.348090 -0.000007 -0.000001 -60.339000 -5.699030 -5.428700 24.328600 0.000019 0.000005 34.928900 8.973720 -77.409600 22.291600 -0.000001 0.000005 26.528500 4.999780 7.322940 12.994500 -0.242716 -4.980390 89.497700 1.472050 -71.158300 -5.348130 -0.000001 -0.000004 -44.629700 -16.023700 26.051400 -24.328900 0.000322 -0.000009 -0.001055 21.510900 0.000099 -22.291500 -0.000108 -0.000004 17.675900 4.623760 14.501900 -2.192480 -6.469440 -0.000000 -174.047000 -9.912550 8.724210 39.081100 -0.000007 -0.000012 0.041023 -0.089197 24.698000 40.985400 -0.000006 -0.000013 -4.349770 14.716900 -34.006000 11.754300 -0.000000 0.000003 0.002456 0.074472 -13.556400 -2.192510 6.469440 -0.000001 -175.254000 -2.223260 135.638000 -39.081100 -0.002282 -0.040193 -0.031604 0.062673 29.116700 -40.985400 0.000008 0.000006 -10.291100 -1.110490 -73.668600 -11.754300 -0.000006 -0.000006 -0.000696 0.178659 -9.326330
0.000000 0.000000 0.000000 0.000000 0.000000 -0.000000 1.004810 91.258300 41.550300 -86.167800 1.359620 166.179000 15.735700 0.000005 -0.000001 39.843700 82.888300 -37.230300 8.984550 -0.406207 -0.000000 1.637660 -11.054900 5.393300 16.377300 -0.000001 -0.000001 -4.583650 7.097140 -3.778710 6.456720 -0.000001 -0.000000 -12.441400 12.557800 1.020020 12.994200 -0.242716 4.980390 -91.505200 5.707090 -75.198800 5.348090 -0.000007 -0.000001 -61.952300 -5.358860 -4.881550 24.328600 0.000019 0.000005 34.288300 10.779100 -74.661500 22.291600 -0.000001 0.000005 26.227400 4.952400 8.315200 12.994500 -0.242716 -4.980390 89.572100 1.319830 -72.035600 -5.348130 -0.000001 -0.000004 -45.036000 -16.893400 24.143800 -24.328900 0.000322 -0.000009 -0.001053 22.705800 0.000106 -22.291500 -0.000108 -0.000004 19.710400 4.558550 15.621400 -2.192480 -6.469440 -0.000000 -176.710000 -5.895520 9.411760 39.081100 -0.000007 -0.000012 0.043137 -0.055044 38.084500 40.985400 -0.000006 -0.000013 -11.380300 11.209500 -31.620600 11.754300 -0.000000 0.000003 0.002452 0.073806 -13.583400 -2.192510 6.469440 -0.000001 -176.127000 -3.979260 139.521000 -39.081100 -0.002282 -0.040193 -0.061836 0.148141 23.739300 -40.985400 0.000008 0.000006 -12.163200 1.189040 -76.939700 -11.754300 -0.000006 -0.000006 -0.000326 0.172982 -9.556980
0.000000 0.000000 0.000000 0.000000 0.000000 -0.000000 1.222540 88.981400 30.669700 -84.739600 4.419440 167.388000 15.735700 0.000005 -0.000001 49.655700 83.155700 -46.767000 8.984550 -0.406207 -0.000000 2.932250 -8.975280 6.010780 16.377300 -0.000001 -0.000001 -4.886020 7.797470 -4.315830 6.456720 -0.000001 -0.000000 -13.581000 12.458600 0.325938 12.994200 -0.242716 4.980390 -91.812300 6.533120 -74.459200 5.348090 -0.000007 -0.000001 -62.824000 -3.623630 -3.165300 24.328600 0.000019 0.000005 33.006400 13.986500 -69.591100 22.291600 -0.000001 0.000005 20.076200 4.974550 7.852940 12.994500 -0.242716 -4.980390 89.417300 1.901720 -72.962400 -5.348130 -0.000001 -0.000004 -46.586500 -15.940500 19.513500 -24.328900 0.000322 -0.000009 -0.001013 22.082100 0.000102 -22.291500 -0.000108 -0.000004 17.624300 4.585750 15.156800 -2.192480 -6.469440 -0.000000 -176.769000 -7.285110 5.890020 39.081100 -0.000007 -0.000012 0.128029 -0.088971 55.202300 40.985400 -0.000006 -0.000013 -13.823800 12.370600 -30.038100 11.754300 -0.000000 0.000003 0.002470 0.076758 -13.463800 -2.192510 6.469440 -0.000001 -172.641000 -3.719540 138.857000 -39.081100 -0.002282 -0.040193 -0.029698 0.053828 31.508600 -40.985400 0.000008 0.000006 -8.382550 -2.519630 -75.495300 -11.754300 -0.000006 -0.000006 0.002049 0.119063 -11.745000
0.000000 0.000000 0.000000 0.000000 0.000000 -0.000000 1.581600 85.910700 20.244000 -83.088600 4.944750 168.774000 15.735700 0.000005 -0.000001 61.278400 83.049000 -57.825100 8.984550 -0.406207 -0.000000 4.665350 -6.762220 7.181160 16.377300 -0.000001 -0.000001 -5.285470 7.443700 -4.205340 6.456720 -0.000001 -0.000000 -15.311000 11.525900 -0.719094 12.994200 -0.242716 4.980390 -92.322000 7.883690 -73.531200 5.348090 -0.000007 -0.000001 -62.732300 -1.239720 -1.540270 24.328600 0.000019 0.000005 34.145800 19.894800 -63.356100 22.291600 -0.000001 0.000005 11.272800 5.041060 6.432680 12.994500 -0.242716 -4.980390 89.273100 2.438850 -73.397000 -5.348130 -0.000001 -0.000004 -49.503800 -13.761500 13.229100 -24.328900 0.000322 -0.000009 -0.001051 20.344400 0.000093 -22.291500 -0.000108 -0.000004 13.660700 4.750010 12.241900 -2.192480 -6.469440 -0.000000 -173.986000 -8.735990 -1.546770 39.081100 -0.000007 -0.000012 0.410876 -0.101467 76.127500 40.985400 -0.000006 -0.000013 -14.671500 6.708120 -31.441600 11.754300 -0.000000 0.000003 0.002467 0.076204 -13.486200 -2.192510 6.469440 -0.000001 -168.701000 -0.495354 137.243000 -39.081100 -0.002282 -0.040193 0.257151 -0.231630 47.625900 -40.985400 0.000008 0.000006 1.683860 -2.094820 -73.070700 -11.754300 -0.000006 -0.000006 -0.003551 0.214356 -7.874580
0.000000 0.000000 0.000000 0.000000 0.000000 -0.000000 2.224630 83.471700 10.631700 -81.040300 4.029490 170.477000 15.735700 0.000005 -0.000001 74.239600 82.460400 -69.973800 8.984550 -0.406207 -0.000000 6.927720 -4.112930 8.774560 16.377300 -0.000001 -0.000001 -6.422270 6.700650 -3.795460 6.456720 -0.000001 -0.000000 -16.870300 9.822390 -2.297890 12.994200 -0.242716 4.980390 -92.889700 9.552340 -73.081500 5.348090 -0.000007 -0.000001 -61.887100 -0.126063 -0.472880 24.328600 0.000019 0.000005 29.800400 27.134000 -51.467600 22.291600 -0.000001 0.000005 8.308830 5.028410 6.709760 12.994500 -0.242716 -4.980390 89.090700 3.060400 -73.443600 -5.348130 -0.000001 -0.000004 -52.522300 -13.124900 5.939750 -24.328900 0.000322 -0.000009 -0.001114 20.211300 0.000092 -22.291500 -0.000108 -0.000004 7.407180 4.945170 8.451590 -2.192480 -6.469440 -0.000000 -170.124000 -8.310130 -12.806500 39.081100 -0.000007 -0.000012 0.675173 0.072436 96.122500 40.985400 -0.000006 -0.000013 -13.958900 -1.158480 -33.022000 11.754300 -0.000000 0.000003 0.002347 0.063872 -13.986200 -2.192510 6.469440 -0.000001 -167.108000 1.144960 141.244000 -39.081100 -0.002282 -0.040193 -0.022046 0.016296 57.174900 -40.985400 0.000008 0.000006 -1.934160 -0.949263 -82.665900 -11.754300 -0.000006 -0.000006 -0.007220 0.249209 -6.453820
0.000000 0.000000 0.000000 0.000000 0.000000 -0.000000 2.750360 82.293500 1.459660 -79.951000 3.470620 171.260000 15.735700 0.000005 -0.000001 84.538500 82.221200 -79.845700 8.984550 -0.406207 -0.000000 7.800700 -1.472550 9.477310 16.377300 -0.000001 -0.000001 -7.430320 5.958780 -2.901700 6.456720 -0.000001 -0.000000 -16.391300 8.292640 -3.797490 12.994200 -0.242716 4.980390 -93.113400 9.911580 -72.463500 5.348090 -0.000007 -0.000001 -61.152700 -1.251990 1.567710 24.328600 0.000019 0.000005 20.436400 33.023700 -34.360800 22.291600 -0.000001 0.000005 6.543190 5.018720 6.917900 12.994500 -0.242716 -4.980390 88.991400 3.448950 -73.688900 -5.348130 -0.000001 -0.000004 -54.842600 -9.006570 -0.205787 -24.328900 0.000322 -0.000009 2.197400 15.579100 -8.144150 -22.291500 -0.000108 -0.000004 0.310485 5.125990 4.507690 -2.192480 -6.469440 -0.000000 -168.636000 -7.130100 -27.406500 39.081100 -0.000007 -0.000012 0.458626 0.165973 109.893000 40.985400 -0.000006 -0.000013 -8.979200 -1.478010 -33.049500 11.754300 -0.000000 0.000003 0.002436 0.071827 -13.663700 -2.192510 6.469440 -0.000001 -166.426000 0.514373 148.213000 -39.081100 -0.002282 -0.040193 -0.031882 0.020659 59.509400 -40.985400 0.000008 0.000006 -3.354610 -1.467590 -89.818300 -11.754300 -0.000006 -0.000006 -0.004537 0.224581 -7.458120
0.000000 0.000000 0.000000 0.000000 0.000000 -0.000000 2.564860 82.911100 -8.313910 -81.984400 3.219090 171.824000 15.735700 0.000005 -0.000001 90.912400 82.250600 -87.053200 8.984550 -0.406207 -0.000000 7.734350 0.245111 7.693950 16.377300 -0.000001 -0.000001 -7.274370 4.948990 -2.115040 6.456720 -0.000001 -0.000000 -15.975300 6.533390 -3.380680 12.994200 -0.242716 4.980390 -93.205800 9.796260 -71.779000 5.348090 -0.000007 -0.000001 -57.658300 -6.349640 4.986690 24.328600 0.000019 0.000005 10.452200 36.142100 -17.369200 22.291600 -0.000001 0.000005 0.861167 5.053800 6.154090 12.994500 -0.242716 -4.980390 88.877500 3.884690 -73.868900 -5.348130 -0.000001 -0.000004 -54.718400 0.290085 -3.388290 -24.328900 0.000322 -0.000009 1.061170 2.320170 -24.678900 -22.291500 -0.000108 -0.000004 3.047310 5.278350 0.683030 -2.192480 -6.469440 -0.000000 -171.155000 -5.622980 -39.359500 39.081100 -0.000007 -0.000012 0.198598 0.090471 114.488000 40.985400 -0.000006 -0.000013 -6.542880 0.400267 -39.859500 11.754300 -0.000000 0.000003 0.002378 0.066265 -13.889100 -2.192510 6.469440 -0.000001 -169.638000 1.485480 157.917000 -39.081100 -0.002282 -0.040193 -0.045506 0.033347 55.615000 -40.985400 0.000008 0.000006 -5.019030 0.469776 -91.730800 -11.754300 -0.000006 -0.000006 0.000361 0.161352 -10.029200
0.000000 0.000000 0.000000 0.000000 0.000000 -0.000000 1.735340 85.203000 -18.604100 -85.541800 3.632140 170.564000 15.735700 0.000005 -0.000001 96.996300 82.861200 -94.588900 8.984550 -0.406207 -0.000000 6.376080 1.704850 4.714740 16.377300 -0.000001 -0.000001 -6.770980 3.993790 -1.196580 6.456720 -0.000001 -0.000000 -15.891500 4.821710 -3.252790 12.994200 -0.242716 4.980390 -93.270400 9.498510 -70.901100 5.348090 -0.000007 -0.000001 -50.949800 -15.073700 8.944090 24.328600 0.000019 0.000005 1.956250 39.368900 -3.082330 22.291600 -0.000001 0.000005 -3.241790 4.905000 9.277300 12.994500 -0.242716 -4.980390 89.002100 3.471530 -73.952600 -5.348130 -0.000001 -0.000004 -53.995600 5.092500 -5.880680 -24.328900 0.000322 -0.000009 -4.335030 -4.791710 -42.209400 -22.291500 -0.000108 -0.000004 8.947000 5.419080 -3.565490 -2.192480 -6.469440 -0.000000 -176.128000 -4.366520 -48.672600 39.081100 -0.000007 -0.000012 0.053810 0.020084 110.457000 40.985400 -0.000006 -0.000013 -5.933050 0.000738 -49.532700 11.754300 -0.000000 0.000003 0.002387 0.067011 -13.858900 -2.192510 6.469440 -0.000001 -175.465000 3.667570 167.206000 -39.081100 -0.002282 -0.040193 -0.068541 0.067212 46.890000 -40.985400 0.000008 0.000006 -6.540540 3.906350 -85.123800 -11.754300 -0.000006 -0.000006 0.000485 0.008604 -16.224500
